<svg xmlns="http://www.w3.org/2000/svg" viewBox="0 0 800 320" role="img" aria-hidden="true">
<defs>
<linearGradient id="g-bbdd" x1="0" y1="0" x2="1" y2="1">
<stop offset="0" stop-color="#2563eb"/><stop offset="1" stop-color="#60a5fa"/>
</linearGradient>
<pattern id="p-bbdd" width="34" height="34" patternUnits="userSpaceOnUse">
<path d="M34 0H0v34" fill="none" stroke="rgba(255,255,255,0.14)" stroke-width="1"/>
</pattern>
<radialGradient id="v-bbdd" cx="0.85" cy="0.1" r="1">
<stop offset="0" stop-color="rgba(255,255,255,0.28)"/><stop offset="0.6" stop-color="rgba(255,255,255,0)"/>
</radialGradient>
</defs>
<rect width="800" height="320" fill="url(#g-bbdd)"/>
<rect width="800" height="320" fill="url(#p-bbdd)"/>
<rect width="800" height="320" fill="url(#v-bbdd)"/>
<circle cx="120" cy="260" r="150" fill="rgba(255,255,255,0.06)"/>
<circle cx="700" cy="60" r="110" fill="rgba(255,255,255,0.08)"/>
<g transform="translate(316,76) scale(7)" fill="none" stroke="rgba(255,255,255,0.9)" stroke-width="1.5" stroke-linecap="round" stroke-linejoin="round">
<path d="M4 7v10c0 2.21 3.582 4 8 4s8-1.79 8-4V7M4 7c0 2.21 3.582 4 8 4s8-1.79 8-4M4 7c0-2.21 3.582-4 8-4s8 1.79 8 4"/>
</g>
</svg>